<?xml version="1.0" encoding="UTF-8" standalone="no"?>
<!DOCTYPE svg PUBLIC "-//W3C//DTD SVG 1.1//EN"
 "http://www.w3.org/Graphics/SVG/1.1/DTD/svg11.dtd">
<!-- Generated by graphviz version 8.1.0 (20230707.0739)
 -->
<!-- Title: G Pages: 1 -->
<svg width="2460pt" height="49pt"
 viewBox="0.00 0.00 2459.75 48.50" xmlns="http://www.w3.org/2000/svg" xmlns:xlink="http://www.w3.org/1999/xlink">
<g id="graph0" class="graph" transform="scale(1 1) rotate(0) translate(4 44.5)">
<title>G</title>
<polygon fill="white" stroke="none" points="-4,4 -4,-44.5 2455.75,-44.5 2455.75,4 -4,4"/>
<!-- node0 -->
<g id="node1" class="node">
<title>node0</title>
<polygon fill="none" stroke="black" points="0,-0.5 0,-40 120.25,-40 120.25,-0.5 0,-0.5"/>
<text text-anchor="middle" x="60.12" y="-22.7" font-family="Times New Roman,serif" font-size="14.00">admin@gmail.com</text>
<text text-anchor="middle" x="60.12" y="-6.95" font-family="Times New Roman,serif" font-size="14.00">admin@gmail.com</text>
</g>
<!-- node1 -->
<g id="node2" class="node">
<title>node1</title>
<polygon fill="none" stroke="black" points="156.25,-0.5 156.25,-40 333.5,-40 333.5,-0.5 156.25,-0.5"/>
<text text-anchor="middle" x="244.88" y="-22.7" font-family="Times New Roman,serif" font-size="14.00">Carlos</text>
<text text-anchor="middle" x="244.88" y="-6.95" font-family="Times New Roman,serif" font-size="14.00">carlos.gomez@example.com</text>
</g>
<!-- node0&#45;&gt;node1 -->
<g id="edge1" class="edge">
<title>node0&#45;&gt;node1</title>
<path fill="none" stroke="black" d="M120.21,-20.25C128.35,-20.25 136.88,-20.25 145.49,-20.25"/>
<polygon fill="black" stroke="black" points="145.43,-23.75 155.43,-20.25 145.42,-16.75 145.43,-23.75"/>
</g>
<!-- node2 -->
<g id="node3" class="node">
<title>node2</title>
<polygon fill="none" stroke="black" points="369.5,-0.5 369.5,-40 536.25,-40 536.25,-0.5 369.5,-0.5"/>
<text text-anchor="middle" x="452.88" y="-22.7" font-family="Times New Roman,serif" font-size="14.00">Maria</text>
<text text-anchor="middle" x="452.88" y="-6.95" font-family="Times New Roman,serif" font-size="14.00">maria.lopez@example.com</text>
</g>
<!-- node1&#45;&gt;node2 -->
<g id="edge2" class="edge">
<title>node1&#45;&gt;node2</title>
<path fill="none" stroke="black" d="M333.24,-20.25C341.72,-20.25 350.35,-20.25 358.88,-20.25"/>
<polygon fill="black" stroke="black" points="358.62,-23.75 368.62,-20.25 358.62,-16.75 358.62,-23.75"/>
</g>
<!-- node3 -->
<g id="node4" class="node">
<title>node3</title>
<polygon fill="none" stroke="black" points="572.25,-0.5 572.25,-40 748,-40 748,-0.5 572.25,-0.5"/>
<text text-anchor="middle" x="660.12" y="-22.7" font-family="Times New Roman,serif" font-size="14.00">Juan</text>
<text text-anchor="middle" x="660.12" y="-6.95" font-family="Times New Roman,serif" font-size="14.00">juan.martinez@example.com</text>
</g>
<!-- node2&#45;&gt;node3 -->
<g id="edge3" class="edge">
<title>node2&#45;&gt;node3</title>
<path fill="none" stroke="black" d="M536.18,-20.25C544.57,-20.25 553.15,-20.25 561.68,-20.25"/>
<polygon fill="black" stroke="black" points="561.44,-23.75 571.44,-20.25 561.44,-16.75 561.44,-23.75"/>
</g>
<!-- node4 -->
<g id="node5" class="node">
<title>node4</title>
<polygon fill="none" stroke="black" points="784,-0.5 784,-40 965.75,-40 965.75,-0.5 784,-0.5"/>
<text text-anchor="middle" x="874.88" y="-22.7" font-family="Times New Roman,serif" font-size="14.00">Ana</text>
<text text-anchor="middle" x="874.88" y="-6.95" font-family="Times New Roman,serif" font-size="14.00">ana.hernandez@example.com</text>
</g>
<!-- node3&#45;&gt;node4 -->
<g id="edge4" class="edge">
<title>node3&#45;&gt;node4</title>
<path fill="none" stroke="black" d="M747.97,-20.25C756.37,-20.25 764.94,-20.25 773.46,-20.25"/>
<polygon fill="black" stroke="black" points="773.2,-23.75 783.2,-20.25 773.2,-16.75 773.2,-23.75"/>
</g>
<!-- node5 -->
<g id="node6" class="node">
<title>node5</title>
<polygon fill="none" stroke="black" points="1001.75,-0.5 1001.75,-40 1157.25,-40 1157.25,-0.5 1001.75,-0.5"/>
<text text-anchor="middle" x="1079.5" y="-22.7" font-family="Times New Roman,serif" font-size="14.00">Luis</text>
<text text-anchor="middle" x="1079.5" y="-6.95" font-family="Times New Roman,serif" font-size="14.00">luis.perez@example.com</text>
</g>
<!-- node4&#45;&gt;node5 -->
<g id="edge5" class="edge">
<title>node4&#45;&gt;node5</title>
<path fill="none" stroke="black" d="M965.63,-20.25C974.02,-20.25 982.52,-20.25 990.89,-20.25"/>
<polygon fill="black" stroke="black" points="990.8,-23.75 1000.8,-20.25 990.8,-16.75 990.8,-23.75"/>
</g>
<!-- node6 -->
<g id="node7" class="node">
<title>node6</title>
<polygon fill="none" stroke="black" points="1193.25,-0.5 1193.25,-40 1366.75,-40 1366.75,-0.5 1193.25,-0.5"/>
<text text-anchor="middle" x="1280" y="-22.7" font-family="Times New Roman,serif" font-size="14.00">Laura</text>
<text text-anchor="middle" x="1280" y="-6.95" font-family="Times New Roman,serif" font-size="14.00">laura.ramirez@example.com</text>
</g>
<!-- node5&#45;&gt;node6 -->
<g id="edge6" class="edge">
<title>node5&#45;&gt;node6</title>
<path fill="none" stroke="black" d="M1157.25,-20.25C1165.61,-20.25 1174.19,-20.25 1182.75,-20.25"/>
<polygon fill="black" stroke="black" points="1182.55,-23.75 1192.55,-20.25 1182.55,-16.75 1182.55,-23.75"/>
</g>
<!-- node7 -->
<g id="node8" class="node">
<title>node7</title>
<polygon fill="none" stroke="black" points="1402.75,-0.5 1402.75,-40 1565,-40 1565,-0.5 1402.75,-0.5"/>
<text text-anchor="middle" x="1483.88" y="-22.7" font-family="Times New Roman,serif" font-size="14.00">Jose</text>
<text text-anchor="middle" x="1483.88" y="-6.95" font-family="Times New Roman,serif" font-size="14.00">jose.garcia@example.com</text>
</g>
<!-- node6&#45;&gt;node7 -->
<g id="edge7" class="edge">
<title>node6&#45;&gt;node7</title>
<path fill="none" stroke="black" d="M1366.61,-20.25C1374.98,-20.25 1383.49,-20.25 1391.91,-20.25"/>
<polygon fill="black" stroke="black" points="1391.91,-23.75 1401.91,-20.25 1391.91,-16.75 1391.91,-23.75"/>
</g>
<!-- node8 -->
<g id="node9" class="node">
<title>node8</title>
<polygon fill="none" stroke="black" points="1601,-0.5 1601,-40 1767.75,-40 1767.75,-0.5 1601,-0.5"/>
<text text-anchor="middle" x="1684.38" y="-22.7" font-family="Times New Roman,serif" font-size="14.00">Elena</text>
<text text-anchor="middle" x="1684.38" y="-6.95" font-family="Times New Roman,serif" font-size="14.00">elena.torres@example.com</text>
</g>
<!-- node7&#45;&gt;node8 -->
<g id="edge8" class="edge">
<title>node7&#45;&gt;node8</title>
<path fill="none" stroke="black" d="M1564.75,-20.25C1573.16,-20.25 1581.76,-20.25 1590.3,-20.25"/>
<polygon fill="black" stroke="black" points="1590.07,-23.75 1600.07,-20.25 1590.07,-16.75 1590.07,-23.75"/>
</g>
<!-- node9 -->
<g id="node10" class="node">
<title>node9</title>
<polygon fill="none" stroke="black" points="1803.75,-0.5 1803.75,-40 1999,-40 1999,-0.5 1803.75,-0.5"/>
<text text-anchor="middle" x="1901.38" y="-22.7" font-family="Times New Roman,serif" font-size="14.00">Miguel</text>
<text text-anchor="middle" x="1901.38" y="-6.95" font-family="Times New Roman,serif" font-size="14.00">miguel.rodriguez@example.com</text>
</g>
<!-- node8&#45;&gt;node9 -->
<g id="edge9" class="edge">
<title>node8&#45;&gt;node9</title>
<path fill="none" stroke="black" d="M1767.58,-20.25C1775.91,-20.25 1784.46,-20.25 1793.01,-20.25"/>
<polygon fill="black" stroke="black" points="1792.82,-23.75 1802.82,-20.25 1792.82,-16.75 1792.82,-23.75"/>
</g>
<!-- node10 -->
<g id="node11" class="node">
<title>node10</title>
<polygon fill="none" stroke="black" points="2035,-0.5 2035,-40 2216.75,-40 2216.75,-0.5 2035,-0.5"/>
<text text-anchor="middle" x="2125.88" y="-22.7" font-family="Times New Roman,serif" font-size="14.00">Sofia</text>
<text text-anchor="middle" x="2125.88" y="-6.95" font-family="Times New Roman,serif" font-size="14.00">sofia.gonzalez@example.com</text>
</g>
<!-- node9&#45;&gt;node10 -->
<g id="edge10" class="edge">
<title>node9&#45;&gt;node10</title>
<path fill="none" stroke="black" d="M1999,-20.25C2007.31,-20.25 2015.74,-20.25 2024.09,-20.25"/>
<polygon fill="black" stroke="black" points="2024.01,-23.75 2034.01,-20.25 2024.01,-16.75 2024.01,-23.75"/>
</g>
<!-- node11 -->
<g id="node12" class="node">
<title>node11</title>
<polygon fill="none" stroke="black" points="2252.75,-0.5 2252.75,-40 2451.75,-40 2451.75,-0.5 2252.75,-0.5"/>
<text text-anchor="middle" x="2352.25" y="-22.7" font-family="Times New Roman,serif" font-size="14.00">Calificacion</text>
<text text-anchor="middle" x="2352.25" y="-6.95" font-family="Times New Roman,serif" font-size="14.00">calificacion.fase1@example.com</text>
</g>
<!-- node10&#45;&gt;node11 -->
<g id="edge11" class="edge">
<title>node10&#45;&gt;node11</title>
<path fill="none" stroke="black" d="M2216.52,-20.25C2224.93,-20.25 2233.52,-20.25 2242.08,-20.25"/>
<polygon fill="black" stroke="black" points="2241.9,-23.75 2251.9,-20.25 2241.9,-16.75 2241.9,-23.75"/>
</g>
</g>
</svg>
