<?xml version="1.0" encoding="UTF-8" standalone="no"?>
<!DOCTYPE svg PUBLIC "-//W3C//DTD SVG 1.1//EN"
 "http://www.w3.org/Graphics/SVG/1.1/DTD/svg11.dtd">
<!-- Generated by graphviz version 8.1.0 (20230707.0739)
 -->
<!-- Title: Sparce_Matrix Pages: 1 -->
<svg width="1318pt" height="366pt"
 viewBox="0.00 0.00 1317.62 366.47" xmlns="http://www.w3.org/2000/svg" xmlns:xlink="http://www.w3.org/1999/xlink">
<g id="graph0" class="graph" transform="scale(1 1) rotate(0) translate(4 362.47)">
<title>Sparce_Matrix</title>
<polygon fill="white" stroke="none" points="-4,4 -4,-362.47 1313.62,-362.47 1313.62,4 -4,4"/>
<!-- root -->
<g id="node1" class="node">
<title>root</title>
<ellipse fill="none" stroke="black" cx="120.12" cy="-306" rx="31.9" ry="18"/>
<text text-anchor="middle" x="120.12" y="-300.95" font-family="Arial" font-size="14.00">Root</text>
</g>
<!-- col3 -->
<g id="node2" class="node">
<title>col3</title>
<polygon fill="none" stroke="black" points="345.25,-324 291,-324 291,-288 345.25,-288 345.25,-324"/>
<text text-anchor="start" x="299" y="-300.95" font-family="Arial" font-size="14.00">User3</text>
</g>
<!-- root&#45;&gt;col3 -->
<g id="edge1" class="edge">
<title>root&#45;&gt;col3</title>
<path fill="none" stroke="black" d="M152.22,-306C198.34,-306 244.46,-306 290.58,-306"/>
</g>
<!-- col7 -->
<g id="node3" class="node">
<title>col7</title>
<polygon fill="none" stroke="black" points="433.25,-324 379,-324 379,-288 433.25,-288 433.25,-324"/>
<text text-anchor="start" x="387" y="-300.95" font-family="Arial" font-size="14.00">User7</text>
</g>
<!-- root&#45;&gt;col7 -->
<g id="edge2" class="edge">
<title>root&#45;&gt;col7</title>
<path fill="none" stroke="black" d="M145.81,-317.09C188,-333.75 274.33,-361.33 345.12,-342 358.06,-338.47 371.03,-331.42 381.67,-324.49"/>
</g>
<!-- col9 -->
<g id="node4" class="node">
<title>col9</title>
<polygon fill="none" stroke="black" points="521.25,-324 467,-324 467,-288 521.25,-288 521.25,-324"/>
<text text-anchor="start" x="475" y="-300.95" font-family="Arial" font-size="14.00">User9</text>
</g>
<!-- root&#45;&gt;col9 -->
<g id="edge3" class="edge">
<title>root&#45;&gt;col9</title>
<path fill="none" stroke="black" d="M147.44,-315.94C202.48,-334.5 330.23,-370.1 433.12,-342 446.06,-338.47 459.03,-331.42 469.67,-324.49"/>
</g>
<!-- col10 -->
<g id="node5" class="node">
<title>col10</title>
<polygon fill="none" stroke="black" points="613.38,-324 550.88,-324 550.88,-288 613.38,-288 613.38,-324"/>
<text text-anchor="start" x="558.88" y="-300.95" font-family="Arial" font-size="14.00">User10</text>
</g>
<!-- root&#45;&gt;col10 -->
<g id="edge4" class="edge">
<title>root&#45;&gt;col10</title>
<path fill="none" stroke="black" d="M147.94,-315.09C213.99,-335.28 384.92,-379.19 521.12,-342 534.06,-338.47 547.03,-331.42 557.67,-324.49"/>
</g>
<!-- col11 -->
<g id="node6" class="node">
<title>col11</title>
<polygon fill="none" stroke="black" points="878.38,-324 815.88,-324 815.88,-288 878.38,-288 878.38,-324"/>
<text text-anchor="start" x="823.88" y="-300.95" font-family="Arial" font-size="14.00">User11</text>
</g>
<!-- root&#45;&gt;col11 -->
<g id="edge5" class="edge">
<title>root&#45;&gt;col11</title>
<path fill="none" stroke="black" d="M149.18,-314.05C182.97,-322.95 240.58,-336.74 291.12,-342 476.35,-361.29 525.44,-365.86 710.12,-342 746.95,-337.24 788,-325.57 815.48,-316.8"/>
</g>
<!-- row3 -->
<g id="node7" class="node">
<title>row3</title>
<polygon fill="none" stroke="black" points="147.25,-252 93,-252 93,-216 147.25,-216 147.25,-252"/>
<text text-anchor="start" x="101" y="-228.95" font-family="Arial" font-size="14.00">User3</text>
</g>
<!-- root&#45;&gt;row3 -->
<g id="edge6" class="edge">
<title>root&#45;&gt;row3</title>
<path fill="none" stroke="black" d="M120.12,-287.7C120.12,-276.85 120.12,-262.92 120.12,-252.1"/>
</g>
<!-- row7 -->
<g id="node8" class="node">
<title>row7</title>
<polygon fill="none" stroke="black" points="109.25,-180 55,-180 55,-144 109.25,-144 109.25,-180"/>
<text text-anchor="start" x="63" y="-156.95" font-family="Arial" font-size="14.00">User7</text>
</g>
<!-- root&#45;&gt;row7 -->
<g id="edge7" class="edge">
<title>root&#45;&gt;row7</title>
<path fill="none" stroke="black" d="M106.12,-289.59C98.03,-279.64 88.6,-265.98 84.12,-252 76.45,-228.01 77.74,-198.48 79.69,-180.2"/>
</g>
<!-- row9 -->
<g id="node9" class="node">
<title>row9</title>
<polygon fill="none" stroke="black" points="54.25,-108 0,-108 0,-72 54.25,-72 54.25,-108"/>
<text text-anchor="start" x="8" y="-84.95" font-family="Arial" font-size="14.00">User9</text>
</g>
<!-- root&#45;&gt;row9 -->
<g id="edge8" class="edge">
<title>root&#45;&gt;row9</title>
<path fill="none" stroke="black" d="M104.49,-289.89C94.77,-279.85 82.56,-265.98 74.12,-252 45.55,-204.63 33.5,-138.89 29.19,-108.14"/>
</g>
<!-- row10 -->
<g id="node10" class="node">
<title>row10</title>
<polygon fill="none" stroke="black" points="286.38,-36 223.88,-36 223.88,0 286.38,0 286.38,-36"/>
<text text-anchor="start" x="231.88" y="-12.95" font-family="Arial" font-size="14.00">User10</text>
</g>
<!-- root&#45;&gt;row10 -->
<g id="edge9" class="edge">
<title>root&#45;&gt;row10</title>
<path fill="none" stroke="black" d="M150.58,-299.94C177.8,-293.68 216.35,-280.18 236.12,-252 283.33,-184.72 267.74,-78.09 259.17,-36.46"/>
</g>
<!-- row11 -->
<g id="node11" class="node">
<title>row11</title>
<polygon fill="none" stroke="black" points="227.38,-252 164.88,-252 164.88,-216 227.38,-216 227.38,-252"/>
<text text-anchor="start" x="172.88" y="-228.95" font-family="Arial" font-size="14.00">User11</text>
</g>
<!-- root&#45;&gt;row11 -->
<g id="edge10" class="edge">
<title>root&#45;&gt;row11</title>
<path fill="none" stroke="black" d="M136.24,-290.15C148.27,-279.08 164.73,-263.92 177.35,-252.29"/>
</g>
<!-- node11_3 -->
<g id="node21" class="node">
<title>node11_3</title>
<polygon fill="none" stroke="black" points="353.12,-252 283.12,-252 283.12,-216 353.12,-216 353.12,-252"/>
<text text-anchor="start" x="291.12" y="-228.95" font-family="Arial" font-size="14.00">Solicitud</text>
</g>
<!-- col3&#45;&gt;node11_3 -->
<g id="edge30" class="edge">
<title>col3&#45;&gt;node11_3</title>
<path fill="none" stroke="black" d="M312.21,-287.7C311.09,-276.85 311.1,-262.92 312.23,-252.1"/>
</g>
<!-- col3&#45;&gt;node11_3 -->
<g id="edge34" class="edge">
<title>col3&#45;&gt;node11_3</title>
<path fill="none" stroke="black" d="M324.04,-287.7C325.16,-276.85 325.15,-262.92 324.02,-252.1"/>
</g>
<!-- node11_7 -->
<g id="node23" class="node">
<title>node11_7</title>
<polygon fill="none" stroke="black" points="441.12,-252 371.12,-252 371.12,-216 441.12,-216 441.12,-252"/>
<text text-anchor="start" x="379.12" y="-228.95" font-family="Arial" font-size="14.00">Solicitud</text>
</g>
<!-- col7&#45;&gt;node11_7 -->
<g id="edge35" class="edge">
<title>col7&#45;&gt;node11_7</title>
<path fill="none" stroke="black" d="M400.21,-287.7C399.09,-276.85 399.1,-262.92 400.23,-252.1"/>
</g>
<!-- col7&#45;&gt;node11_7 -->
<g id="edge39" class="edge">
<title>col7&#45;&gt;node11_7</title>
<path fill="none" stroke="black" d="M412.04,-287.7C413.16,-276.85 413.15,-262.92 412.02,-252.1"/>
</g>
<!-- node11_9 -->
<g id="node24" class="node">
<title>node11_9</title>
<polygon fill="none" stroke="black" points="529.12,-252 459.12,-252 459.12,-216 529.12,-216 529.12,-252"/>
<text text-anchor="start" x="467.12" y="-228.95" font-family="Arial" font-size="14.00">Solicitud</text>
</g>
<!-- col9&#45;&gt;node11_9 -->
<g id="edge40" class="edge">
<title>col9&#45;&gt;node11_9</title>
<path fill="none" stroke="black" d="M488.21,-287.7C487.09,-276.85 487.1,-262.92 488.23,-252.1"/>
</g>
<!-- col9&#45;&gt;node11_9 -->
<g id="edge44" class="edge">
<title>col9&#45;&gt;node11_9</title>
<path fill="none" stroke="black" d="M500.04,-287.7C501.16,-276.85 501.15,-262.92 500.02,-252.1"/>
</g>
<!-- node11_10 -->
<g id="node25" class="node">
<title>node11_10</title>
<polygon fill="none" stroke="black" points="617.12,-252 547.12,-252 547.12,-216 617.12,-216 617.12,-252"/>
<text text-anchor="start" x="555.12" y="-228.95" font-family="Arial" font-size="14.00">Solicitud</text>
</g>
<!-- col10&#45;&gt;node11_10 -->
<g id="edge45" class="edge">
<title>col10&#45;&gt;node11_10</title>
<path fill="none" stroke="black" d="M576.21,-287.7C575.09,-276.85 575.1,-262.92 576.23,-252.1"/>
</g>
<!-- col10&#45;&gt;node11_10 -->
<g id="edge48" class="edge">
<title>col10&#45;&gt;node11_10</title>
<path fill="none" stroke="black" d="M588.04,-287.7C589.16,-276.85 589.15,-262.92 588.02,-252.1"/>
</g>
<!-- node3_11 -->
<g id="node12" class="node">
<title>node3_11</title>
<polygon fill="none" stroke="black" points="819.12,-252 749.12,-252 749.12,-216 819.12,-216 819.12,-252"/>
<text text-anchor="start" x="757.12" y="-228.95" font-family="Arial" font-size="14.00">Solicitud</text>
</g>
<!-- col11&#45;&gt;node3_11 -->
<g id="edge11" class="edge">
<title>col11&#45;&gt;node3_11</title>
<path fill="none" stroke="black" d="M825.64,-287.7C814.75,-276.85 802.22,-262.92 793.62,-252.1"/>
</g>
<!-- col11&#45;&gt;node3_11 -->
<g id="edge15" class="edge">
<title>col11&#45;&gt;node3_11</title>
<path fill="none" stroke="black" d="M837.47,-287.7C828.82,-276.85 816.28,-262.92 805.41,-252.1"/>
</g>
<!-- node7_11 -->
<g id="node13" class="node">
<title>node7_11</title>
<polygon fill="none" stroke="black" points="857.12,-180 787.12,-180 787.12,-144 857.12,-144 857.12,-180"/>
<text text-anchor="start" x="795.12" y="-156.95" font-family="Arial" font-size="14.00">Solicitud</text>
</g>
<!-- col11&#45;&gt;node7_11 -->
<g id="edge20" class="edge">
<title>col11&#45;&gt;node7_11</title>
<path fill="none" stroke="black" d="M844.06,-287.59C839.24,-260.19 829.93,-207.32 825.14,-180.11"/>
</g>
<!-- node9_11 -->
<g id="node16" class="node">
<title>node9_11</title>
<polygon fill="none" stroke="black" points="857.12,-108 787.12,-108 787.12,-72 857.12,-72 857.12,-108"/>
<text text-anchor="start" x="795.12" y="-84.95" font-family="Arial" font-size="14.00">Solicitud</text>
</g>
<!-- col11&#45;&gt;node9_11 -->
<g id="edge25" class="edge">
<title>col11&#45;&gt;node9_11</title>
<path fill="none" stroke="black" d="M854.06,-287.97C865.22,-257.94 884.19,-194.03 866.12,-144 861.17,-130.28 850.95,-117.6 841.6,-108.08"/>
</g>
<!-- node10_11 -->
<g id="node18" class="node">
<title>node10_11</title>
<polygon fill="none" stroke="black" points="857.12,-36 787.12,-36 787.12,0 857.12,0 857.12,-36"/>
<text text-anchor="start" x="795.12" y="-12.95" font-family="Arial" font-size="14.00">Solicitud</text>
</g>
<!-- col11&#45;&gt;node10_11 -->
<g id="edge29" class="edge">
<title>col11&#45;&gt;node10_11</title>
<path fill="none" stroke="black" d="M862.24,-287.68C869.76,-277.91 878.1,-265.07 882.12,-252 896.25,-206.12 888.68,-191.68 883.12,-144 879.32,-111.34 880.79,-101.43 866.12,-72 859.51,-58.73 848.98,-45.88 839.88,-36.16"/>
</g>
<!-- row3&#45;&gt;node3_11 -->
<g id="edge14" class="edge">
<title>row3&#45;&gt;node3_11</title>
<path fill="none" stroke="black" d="M137.21,-252.22C144.97,-259.2 154.74,-266.36 165.12,-270 223.94,-290.63 666.18,-287.09 726.12,-270 738.55,-266.46 750.91,-259.41 761,-252.47"/>
</g>
<!-- row7&#45;&gt;node7_11 -->
<g id="edge19" class="edge">
<title>row7&#45;&gt;node7_11</title>
<path fill="none" stroke="black" d="M109.59,-162C335.27,-162 560.95,-162 786.64,-162"/>
</g>
<!-- row9&#45;&gt;node9_11 -->
<g id="edge24" class="edge">
<title>row9&#45;&gt;node9_11</title>
<path fill="none" stroke="black" d="M54.69,-90C298.76,-90 542.83,-90 786.9,-90"/>
</g>
<!-- row10&#45;&gt;node10_11 -->
<g id="edge28" class="edge">
<title>row10&#45;&gt;node10_11</title>
<path fill="none" stroke="black" d="M286.69,-18C453.4,-18 620.12,-18 786.83,-18"/>
</g>
<!-- row11&#45;&gt;node11_3 -->
<g id="edge33" class="edge">
<title>row11&#45;&gt;node11_3</title>
<path fill="none" stroke="black" d="M227.58,-234C245.97,-234 264.36,-234 282.76,-234"/>
</g>
<!-- row11&#45;&gt;node11_7 -->
<g id="edge38" class="edge">
<title>row11&#45;&gt;node11_7</title>
<path fill="none" stroke="black" d="M227.76,-250.94C259.72,-265.8 310.36,-283.15 353.12,-270 364.71,-266.44 376.04,-259.38 385.23,-252.45"/>
</g>
<!-- row11&#45;&gt;node11_9 -->
<g id="edge43" class="edge">
<title>row11&#45;&gt;node11_9</title>
<path fill="none" stroke="black" d="M227.81,-250.64C243.91,-258.16 264.05,-266.21 283.12,-270 352,-283.69 374,-290.64 441.12,-270 452.71,-266.44 464.04,-259.38 473.23,-252.45"/>
</g>
<!-- row11&#45;&gt;node11_10 -->
<g id="edge47" class="edge">
<title>row11&#45;&gt;node11_10</title>
<path fill="none" stroke="black" d="M227.81,-250.64C243.91,-258.16 264.05,-266.21 283.12,-270 336.74,-280.66 476.87,-286.07 529.12,-270 540.71,-266.44 552.04,-259.38 561.23,-252.45"/>
</g>
<!-- node3_11&#45;&gt;node7_11 -->
<g id="edge12" class="edge">
<title>node3_11&#45;&gt;node7_11</title>
<path fill="none" stroke="black" d="M787.6,-215.7C792.37,-204.85 799.94,-190.92 806.94,-180.1"/>
</g>
<!-- node3_11&#45;&gt;node7_11 -->
<g id="edge16" class="edge">
<title>node3_11&#45;&gt;node7_11</title>
<path fill="none" stroke="black" d="M799.43,-215.7C806.44,-204.85 814,-190.92 818.73,-180.1"/>
</g>
<!-- node7_11&#45;&gt;node9_11 -->
<g id="edge17" class="edge">
<title>node7_11&#45;&gt;node9_11</title>
<path fill="none" stroke="black" d="M816.21,-143.7C815.09,-132.85 815.1,-118.92 816.23,-108.1"/>
</g>
<!-- node7_11&#45;&gt;node9_11 -->
<g id="edge21" class="edge">
<title>node7_11&#45;&gt;node9_11</title>
<path fill="none" stroke="black" d="M828.04,-143.7C829.16,-132.85 829.15,-118.92 828.02,-108.1"/>
</g>
<!-- node3_ -->
<g id="node14" class="node">
<title>node3_</title>
<polygon fill="none" stroke="black" points="961.5,-324 896.75,-324 896.75,-288 961.5,-288 961.5,-324"/>
<text text-anchor="middle" x="929.12" y="-300.95" font-family="Arial" font-size="14.00">node3_</text>
</g>
<!-- &#45;1 -->
<g id="node15" class="node">
<title>&#45;1</title>
<polygon fill="none" stroke="black" points="710.12,-324 656.12,-324 656.12,-288 710.12,-288 710.12,-324"/>
<text text-anchor="middle" x="683.12" y="-300.95" font-family="Arial" font-size="14.00">&#45;1</text>
</g>
<!-- &#45;1&#45;&gt;node3_11 -->
<g id="edge13" class="edge">
<title>&#45;1&#45;&gt;node3_11</title>
<path fill="none" stroke="black" d="M708.35,-287.52C723.89,-276.74 743.74,-262.99 759.22,-252.26"/>
</g>
<!-- &#45;1&#45;&gt;node7_11 -->
<g id="edge18" class="edge">
<title>&#45;1&#45;&gt;node7_11</title>
<path fill="none" stroke="black" d="M691.34,-287.74C701.05,-268.6 718.63,-237.58 740.12,-216 754.12,-201.95 772.45,-189.67 788.23,-180.48"/>
</g>
<!-- &#45;1&#45;&gt;node9_11 -->
<g id="edge23" class="edge">
<title>&#45;1&#45;&gt;node9_11</title>
<path fill="none" stroke="black" d="M685.8,-287.71C689.2,-269.09 696.25,-239.04 709.12,-216 733.67,-172.08 776.24,-130.75 801.54,-108.36"/>
</g>
<!-- &#45;1&#45;&gt;node10_11 -->
<g id="edge27" class="edge">
<title>&#45;1&#45;&gt;node10_11</title>
<path fill="none" stroke="black" d="M682.33,-287.54C682,-269.29 682.88,-240.04 690.12,-216 712.76,-140.91 774.8,-68.49 805.07,-36.34"/>
</g>
<!-- &#45;1&#45;&gt;node11_3 -->
<g id="edge31" class="edge">
<title>&#45;1&#45;&gt;node11_3</title>
<path fill="none" stroke="black" d="M655.68,-296.51C645.25,-293.5 633.21,-290.3 622.12,-288 507.9,-264.29 475.07,-281.22 362.12,-252 359.27,-251.26 356.35,-250.39 353.44,-249.45"/>
</g>
<!-- node9_11&#45;&gt;node10_11 -->
<g id="edge22" class="edge">
<title>node9_11&#45;&gt;node10_11</title>
<path fill="none" stroke="black" d="M816.21,-71.7C815.09,-60.85 815.1,-46.92 816.23,-36.1"/>
</g>
<!-- node9_11&#45;&gt;node10_11 -->
<g id="edge26" class="edge">
<title>node9_11&#45;&gt;node10_11</title>
<path fill="none" stroke="black" d="M828.04,-71.7C829.16,-60.85 829.15,-46.92 828.02,-36.1"/>
</g>
<!-- node7_ -->
<g id="node17" class="node">
<title>node7_</title>
<polygon fill="none" stroke="black" points="1044.5,-324 979.75,-324 979.75,-288 1044.5,-288 1044.5,-324"/>
<text text-anchor="middle" x="1012.12" y="-300.95" font-family="Arial" font-size="14.00">node7_</text>
</g>
<!-- node9_ -->
<g id="node19" class="node">
<title>node9_</title>
<polygon fill="none" stroke="black" points="1127.5,-324 1062.75,-324 1062.75,-288 1127.5,-288 1127.5,-324"/>
<text text-anchor="middle" x="1095.12" y="-300.95" font-family="Arial" font-size="14.00">node9_</text>
</g>
<!-- node10_ -->
<g id="node20" class="node">
<title>node10_</title>
<polygon fill="none" stroke="black" points="1218.62,-324 1145.62,-324 1145.62,-288 1218.62,-288 1218.62,-324"/>
<text text-anchor="middle" x="1182.12" y="-300.95" font-family="Arial" font-size="14.00">node10_</text>
</g>
<!-- node11_3&#45;&gt;node11_7 -->
<g id="edge32" class="edge">
<title>node11_3&#45;&gt;node11_7</title>
<path fill="none" stroke="black" d="M353.53,-221.01C359.28,-220.33 365.04,-220.33 370.79,-221.02"/>
</g>
<!-- node11_3&#45;&gt;node11_7 -->
<g id="edge36" class="edge">
<title>node11_3&#45;&gt;node11_7</title>
<path fill="none" stroke="black" d="M353.53,-246.99C359.28,-247.67 365.04,-247.67 370.79,-246.98"/>
</g>
<!-- node11_ -->
<g id="node22" class="node">
<title>node11_</title>
<polygon fill="none" stroke="black" points="1309.62,-324 1236.62,-324 1236.62,-288 1309.62,-288 1309.62,-324"/>
<text text-anchor="middle" x="1273.12" y="-300.95" font-family="Arial" font-size="14.00">node11_</text>
</g>
<!-- node11_7&#45;&gt;node11_9 -->
<g id="edge37" class="edge">
<title>node11_7&#45;&gt;node11_9</title>
<path fill="none" stroke="black" d="M441.53,-221.01C447.28,-220.33 453.04,-220.33 458.79,-221.02"/>
</g>
<!-- node11_7&#45;&gt;node11_9 -->
<g id="edge41" class="edge">
<title>node11_7&#45;&gt;node11_9</title>
<path fill="none" stroke="black" d="M441.53,-246.99C447.28,-247.67 453.04,-247.67 458.79,-246.98"/>
</g>
<!-- node11_9&#45;&gt;node11_10 -->
<g id="edge42" class="edge">
<title>node11_9&#45;&gt;node11_10</title>
<path fill="none" stroke="black" d="M529.53,-221.01C535.28,-220.33 541.04,-220.33 546.79,-221.02"/>
</g>
<!-- node11_9&#45;&gt;node11_10 -->
<g id="edge46" class="edge">
<title>node11_9&#45;&gt;node11_10</title>
<path fill="none" stroke="black" d="M529.53,-246.99C535.28,-247.67 541.04,-247.67 546.79,-246.98"/>
</g>
</g>
</svg>
