<?xml version="1.0" encoding="UTF-8" standalone="no"?>
<!DOCTYPE svg PUBLIC "-//W3C//DTD SVG 1.1//EN"
 "http://www.w3.org/Graphics/SVG/1.1/DTD/svg11.dtd">
<!-- Generated by graphviz version 8.1.0 (20230707.0739)
 -->
<!-- Title: Sparce_Matrix Pages: 1 -->
<svg width="1999pt" height="150pt"
 viewBox="0.00 0.00 1998.62 150.39" xmlns="http://www.w3.org/2000/svg" xmlns:xlink="http://www.w3.org/1999/xlink">
<g id="graph0" class="graph" transform="scale(1 1) rotate(0) translate(4 146.39)">
<title>Sparce_Matrix</title>
<polygon fill="white" stroke="none" points="-4,4 -4,-146.39 1994.62,-146.39 1994.62,4 -4,4"/>
<!-- root -->
<g id="node1" class="node">
<title>root</title>
<ellipse fill="none" stroke="black" cx="315.12" cy="-90" rx="31.9" ry="18"/>
<text text-anchor="middle" x="315.12" y="-84.95" font-family="Arial" font-size="14.00">Root</text>
</g>
<!-- col1 -->
<g id="node2" class="node">
<title>col1</title>
<polygon fill="none" stroke="black" points="1318.25,-108 1264,-108 1264,-72 1318.25,-72 1318.25,-108"/>
<text text-anchor="start" x="1272" y="-84.95" font-family="Arial" font-size="14.00">User1</text>
</g>
<!-- root&#45;&gt;col1 -->
<g id="edge1" class="edge">
<title>root&#45;&gt;col1</title>
<path fill="none" stroke="black" d="M345.7,-95.37C396.05,-103.9 499.64,-120.19 588.12,-126 659.31,-130.67 1161.31,-144.79 1230.12,-126 1243.06,-122.47 1256.03,-115.42 1266.67,-108.49"/>
</g>
<!-- col2 -->
<g id="node3" class="node">
<title>col2</title>
<polygon fill="none" stroke="black" points="1230.25,-108 1176,-108 1176,-72 1230.25,-72 1230.25,-108"/>
<text text-anchor="start" x="1184" y="-84.95" font-family="Arial" font-size="14.00">User2</text>
</g>
<!-- root&#45;&gt;col2 -->
<g id="edge2" class="edge">
<title>root&#45;&gt;col2</title>
<path fill="none" stroke="black" d="M345.7,-95.37C396.05,-103.9 499.64,-120.19 588.12,-126 710.97,-134.06 1023.36,-158.43 1142.12,-126 1155.06,-122.47 1168.03,-115.42 1178.67,-108.49"/>
</g>
<!-- col3 -->
<g id="node4" class="node">
<title>col3</title>
<polygon fill="none" stroke="black" points="1142.25,-108 1088,-108 1088,-72 1142.25,-72 1142.25,-108"/>
<text text-anchor="start" x="1096" y="-84.95" font-family="Arial" font-size="14.00">User3</text>
</g>
<!-- root&#45;&gt;col3 -->
<g id="edge3" class="edge">
<title>root&#45;&gt;col3</title>
<path fill="none" stroke="black" d="M345.7,-95.37C396.05,-103.9 499.64,-120.19 588.12,-126 691.46,-132.78 954.23,-153.28 1054.12,-126 1067.06,-122.47 1080.03,-115.42 1090.67,-108.49"/>
</g>
<!-- col4 -->
<g id="node5" class="node">
<title>col4</title>
<polygon fill="none" stroke="black" points="1054.25,-108 1000,-108 1000,-72 1054.25,-72 1054.25,-108"/>
<text text-anchor="start" x="1008" y="-84.95" font-family="Arial" font-size="14.00">User4</text>
</g>
<!-- root&#45;&gt;col4 -->
<g id="edge4" class="edge">
<title>root&#45;&gt;col4</title>
<path fill="none" stroke="black" d="M345.7,-95.37C396.05,-103.9 499.64,-120.19 588.12,-126 675.49,-131.74 899.51,-154.98 982.12,-126 992.51,-122.36 1002.28,-115.2 1010.04,-108.22"/>
</g>
<!-- col5 -->
<g id="node6" class="node">
<title>col5</title>
<polygon fill="none" stroke="black" points="910.25,-108 856,-108 856,-72 910.25,-72 910.25,-108"/>
<text text-anchor="start" x="864" y="-84.95" font-family="Arial" font-size="14.00">User5</text>
</g>
<!-- root&#45;&gt;col5 -->
<g id="edge5" class="edge">
<title>root&#45;&gt;col5</title>
<path fill="none" stroke="black" d="M345.7,-95.37C396.05,-103.9 499.64,-120.19 588.12,-126 691.9,-132.81 721.8,-153.4 822.12,-126 835.06,-122.47 848.03,-115.42 858.67,-108.49"/>
</g>
<!-- col6 -->
<g id="node7" class="node">
<title>col6</title>
<polygon fill="none" stroke="black" points="822.25,-108 768,-108 768,-72 822.25,-72 822.25,-108"/>
<text text-anchor="start" x="776" y="-84.95" font-family="Arial" font-size="14.00">User6</text>
</g>
<!-- root&#45;&gt;col6 -->
<g id="edge6" class="edge">
<title>root&#45;&gt;col6</title>
<path fill="none" stroke="black" d="M343.18,-99.01C411.46,-119.53 591.15,-165.04 734.12,-126 747.06,-122.47 760.03,-115.42 770.67,-108.49"/>
</g>
<!-- col9 -->
<g id="node8" class="node">
<title>col9</title>
<polygon fill="none" stroke="black" points="734.25,-108 680,-108 680,-72 734.25,-72 734.25,-108"/>
<text text-anchor="start" x="688" y="-84.95" font-family="Arial" font-size="14.00">User9</text>
</g>
<!-- root&#45;&gt;col9 -->
<g id="edge7" class="edge">
<title>root&#45;&gt;col9</title>
<path fill="none" stroke="black" d="M342.23,-99.81C400.02,-119.25 539.15,-158.11 650.12,-126 662.38,-122.45 674.53,-115.4 684.45,-108.47"/>
</g>
<!-- col10 -->
<g id="node9" class="node">
<title>col10</title>
<polygon fill="none" stroke="black" points="650.38,-108 587.88,-108 587.88,-72 650.38,-72 650.38,-108"/>
<text text-anchor="start" x="595.88" y="-84.95" font-family="Arial" font-size="14.00">User10</text>
</g>
<!-- root&#45;&gt;col10 -->
<g id="edge8" class="edge">
<title>root&#45;&gt;col10</title>
<path fill="none" stroke="black" d="M347.48,-90C427.51,-90 507.53,-90 587.56,-90"/>
</g>
<!-- row1 -->
<g id="node10" class="node">
<title>row1</title>
<polygon fill="none" stroke="black" points="566.25,-36 512,-36 512,0 566.25,0 566.25,-36"/>
<text text-anchor="start" x="520" y="-12.95" font-family="Arial" font-size="14.00">User1</text>
</g>
<!-- root&#45;&gt;row1 -->
<g id="edge9" class="edge">
<title>root&#45;&gt;row1</title>
<path fill="none" stroke="black" d="M344.27,-82.38C381.64,-73.53 448.18,-56.56 503.12,-36 505.97,-34.93 508.91,-33.73 511.81,-32.47"/>
</g>
<!-- row2 -->
<g id="node11" class="node">
<title>row2</title>
<polygon fill="none" stroke="black" points="270.25,-36 216,-36 216,0 270.25,0 270.25,-36"/>
<text text-anchor="start" x="224" y="-12.95" font-family="Arial" font-size="14.00">User2</text>
</g>
<!-- root&#45;&gt;row2 -->
<g id="edge10" class="edge">
<title>root&#45;&gt;row2</title>
<path fill="none" stroke="black" d="M299.5,-73.81C288.17,-62.79 272.82,-47.87 261,-36.38"/>
</g>
<!-- row3 -->
<g id="node12" class="node">
<title>row3</title>
<polygon fill="none" stroke="black" points="126.25,-36 72,-36 72,0 126.25,0 126.25,-36"/>
<text text-anchor="start" x="80" y="-12.95" font-family="Arial" font-size="14.00">User3</text>
</g>
<!-- root&#45;&gt;row3 -->
<g id="edge11" class="edge">
<title>root&#45;&gt;row3</title>
<path fill="none" stroke="black" d="M285.99,-81.91C250.01,-72.81 187.19,-55.82 135.12,-36 132.28,-34.92 129.35,-33.71 126.45,-32.44"/>
</g>
<!-- row4 -->
<g id="node13" class="node">
<title>row4</title>
<polygon fill="none" stroke="black" points="414.25,-36 360,-36 360,0 414.25,0 414.25,-36"/>
<text text-anchor="start" x="368" y="-12.95" font-family="Arial" font-size="14.00">User4</text>
</g>
<!-- root&#45;&gt;row4 -->
<g id="edge12" class="edge">
<title>root&#45;&gt;row4</title>
<path fill="none" stroke="black" d="M330.75,-73.81C342.08,-62.79 357.43,-47.87 369.25,-36.38"/>
</g>
<!-- row5 -->
<g id="node14" class="node">
<title>row5</title>
<polygon fill="none" stroke="black" points="54.25,-36 0,-36 0,0 54.25,0 54.25,-36"/>
<text text-anchor="start" x="8" y="-12.95" font-family="Arial" font-size="14.00">User5</text>
</g>
<!-- root&#45;&gt;row5 -->
<g id="edge13" class="edge">
<title>root&#45;&gt;row5</title>
<path fill="none" stroke="black" d="M284.26,-84.89C236.13,-77.95 140.68,-62.06 63.12,-36 60.24,-35.03 57.29,-33.89 54.37,-32.67"/>
</g>
<!-- row6 -->
<g id="node15" class="node">
<title>row6</title>
<polygon fill="none" stroke="black" points="198.25,-36 144,-36 144,0 198.25,0 198.25,-36"/>
<text text-anchor="start" x="152" y="-12.95" font-family="Arial" font-size="14.00">User6</text>
</g>
<!-- root&#45;&gt;row6 -->
<g id="edge14" class="edge">
<title>root&#45;&gt;row6</title>
<path fill="none" stroke="black" d="M291.35,-77.44C265.86,-65.05 225.47,-45.42 198.63,-32.37"/>
</g>
<!-- row9 -->
<g id="node16" class="node">
<title>row9</title>
<polygon fill="none" stroke="black" points="342.25,-36 288,-36 288,0 342.25,0 342.25,-36"/>
<text text-anchor="start" x="296" y="-12.95" font-family="Arial" font-size="14.00">User9</text>
</g>
<!-- root&#45;&gt;row9 -->
<g id="edge15" class="edge">
<title>root&#45;&gt;row9</title>
<path fill="none" stroke="black" d="M315.12,-71.7C315.12,-60.85 315.12,-46.92 315.12,-36.1"/>
</g>
<!-- row10 -->
<g id="node17" class="node">
<title>row10</title>
<polygon fill="none" stroke="black" points="494.38,-36 431.88,-36 431.88,0 494.38,0 494.38,-36"/>
<text text-anchor="start" x="439.88" y="-12.95" font-family="Arial" font-size="14.00">User10</text>
</g>
<!-- root&#45;&gt;row10 -->
<g id="edge16" class="edge">
<title>root&#45;&gt;row10</title>
<path fill="none" stroke="black" d="M338.9,-77.75C363.99,-65.89 403.65,-47.13 431.39,-34.01"/>
</g>
<!-- node2_1 -->
<g id="node21" class="node">
<title>node2_1</title>
<polygon fill="none" stroke="black" points="1326.12,-36 1256.12,-36 1256.12,0 1326.12,0 1326.12,-36"/>
<text text-anchor="start" x="1264.12" y="-12.95" font-family="Arial" font-size="14.00">Solicitud</text>
</g>
<!-- col1&#45;&gt;node2_1 -->
<g id="edge21" class="edge">
<title>col1&#45;&gt;node2_1</title>
<path fill="none" stroke="black" d="M1285.21,-71.7C1284.09,-60.85 1284.1,-46.92 1285.23,-36.1"/>
</g>
<!-- col1&#45;&gt;node2_1 -->
<g id="edge24" class="edge">
<title>col1&#45;&gt;node2_1</title>
<path fill="none" stroke="black" d="M1297.04,-71.7C1298.16,-60.85 1298.15,-46.92 1297.02,-36.1"/>
</g>
<!-- node1_2 -->
<g id="node18" class="node">
<title>node1_2</title>
<polygon fill="none" stroke="black" points="1238.12,-36 1168.12,-36 1168.12,0 1238.12,0 1238.12,-36"/>
<text text-anchor="start" x="1176.12" y="-12.95" font-family="Arial" font-size="14.00">Solicitud</text>
</g>
<!-- col2&#45;&gt;node1_2 -->
<g id="edge17" class="edge">
<title>col2&#45;&gt;node1_2</title>
<path fill="none" stroke="black" d="M1197.21,-71.7C1196.09,-60.85 1196.1,-46.92 1197.23,-36.1"/>
</g>
<!-- col2&#45;&gt;node1_2 -->
<g id="edge20" class="edge">
<title>col2&#45;&gt;node1_2</title>
<path fill="none" stroke="black" d="M1209.04,-71.7C1210.16,-60.85 1210.15,-46.92 1209.02,-36.1"/>
</g>
<!-- node4_3 -->
<g id="node25" class="node">
<title>node4_3</title>
<polygon fill="none" stroke="black" points="1150.12,-36 1080.12,-36 1080.12,0 1150.12,0 1150.12,-36"/>
<text text-anchor="start" x="1088.12" y="-12.95" font-family="Arial" font-size="14.00">Solicitud</text>
</g>
<!-- col3&#45;&gt;node4_3 -->
<g id="edge29" class="edge">
<title>col3&#45;&gt;node4_3</title>
<path fill="none" stroke="black" d="M1109.21,-71.7C1108.09,-60.85 1108.1,-46.92 1109.23,-36.1"/>
</g>
<!-- col3&#45;&gt;node4_3 -->
<g id="edge32" class="edge">
<title>col3&#45;&gt;node4_3</title>
<path fill="none" stroke="black" d="M1121.04,-71.7C1122.16,-60.85 1122.15,-46.92 1121.02,-36.1"/>
</g>
<!-- node3_4 -->
<g id="node23" class="node">
<title>node3_4</title>
<polygon fill="none" stroke="black" points="1062.12,-36 992.12,-36 992.12,0 1062.12,0 1062.12,-36"/>
<text text-anchor="start" x="1000.12" y="-12.95" font-family="Arial" font-size="14.00">Solicitud</text>
</g>
<!-- col4&#45;&gt;node3_4 -->
<g id="edge25" class="edge">
<title>col4&#45;&gt;node3_4</title>
<path fill="none" stroke="black" d="M1021.21,-71.7C1020.09,-60.85 1020.1,-46.92 1021.23,-36.1"/>
</g>
<!-- col4&#45;&gt;node3_4 -->
<g id="edge28" class="edge">
<title>col4&#45;&gt;node3_4</title>
<path fill="none" stroke="black" d="M1033.04,-71.7C1034.16,-60.85 1034.15,-46.92 1033.02,-36.1"/>
</g>
<!-- node6_5 -->
<g id="node29" class="node">
<title>node6_5</title>
<polygon fill="none" stroke="black" points="918.12,-36 848.12,-36 848.12,0 918.12,0 918.12,-36"/>
<text text-anchor="start" x="856.12" y="-12.95" font-family="Arial" font-size="14.00">Solicitud</text>
</g>
<!-- col5&#45;&gt;node6_5 -->
<g id="edge37" class="edge">
<title>col5&#45;&gt;node6_5</title>
<path fill="none" stroke="black" d="M877.21,-71.7C876.09,-60.85 876.1,-46.92 877.23,-36.1"/>
</g>
<!-- col5&#45;&gt;node6_5 -->
<g id="edge40" class="edge">
<title>col5&#45;&gt;node6_5</title>
<path fill="none" stroke="black" d="M889.04,-71.7C890.16,-60.85 890.15,-46.92 889.02,-36.1"/>
</g>
<!-- node5_6 -->
<g id="node27" class="node">
<title>node5_6</title>
<polygon fill="none" stroke="black" points="830.12,-36 760.12,-36 760.12,0 830.12,0 830.12,-36"/>
<text text-anchor="start" x="768.12" y="-12.95" font-family="Arial" font-size="14.00">Solicitud</text>
</g>
<!-- col6&#45;&gt;node5_6 -->
<g id="edge33" class="edge">
<title>col6&#45;&gt;node5_6</title>
<path fill="none" stroke="black" d="M789.21,-71.7C788.09,-60.85 788.1,-46.92 789.23,-36.1"/>
</g>
<!-- col6&#45;&gt;node5_6 -->
<g id="edge36" class="edge">
<title>col6&#45;&gt;node5_6</title>
<path fill="none" stroke="black" d="M801.04,-71.7C802.16,-60.85 802.15,-46.92 801.02,-36.1"/>
</g>
<!-- node10_9 -->
<g id="node33" class="node">
<title>node10_9</title>
<polygon fill="none" stroke="black" points="742.12,-36 672.12,-36 672.12,0 742.12,0 742.12,-36"/>
<text text-anchor="start" x="680.12" y="-12.95" font-family="Arial" font-size="14.00">Solicitud</text>
</g>
<!-- col9&#45;&gt;node10_9 -->
<g id="edge45" class="edge">
<title>col9&#45;&gt;node10_9</title>
<path fill="none" stroke="black" d="M701.21,-71.7C700.09,-60.85 700.1,-46.92 701.23,-36.1"/>
</g>
<!-- col9&#45;&gt;node10_9 -->
<g id="edge48" class="edge">
<title>col9&#45;&gt;node10_9</title>
<path fill="none" stroke="black" d="M713.04,-71.7C714.16,-60.85 714.15,-46.92 713.02,-36.1"/>
</g>
<!-- node9_10 -->
<g id="node31" class="node">
<title>node9_10</title>
<polygon fill="none" stroke="black" points="654.12,-36 584.12,-36 584.12,0 654.12,0 654.12,-36"/>
<text text-anchor="start" x="592.12" y="-12.95" font-family="Arial" font-size="14.00">Solicitud</text>
</g>
<!-- col10&#45;&gt;node9_10 -->
<g id="edge41" class="edge">
<title>col10&#45;&gt;node9_10</title>
<path fill="none" stroke="black" d="M613.21,-71.7C612.09,-60.85 612.1,-46.92 613.23,-36.1"/>
</g>
<!-- col10&#45;&gt;node9_10 -->
<g id="edge44" class="edge">
<title>col10&#45;&gt;node9_10</title>
<path fill="none" stroke="black" d="M625.04,-71.7C626.16,-60.85 626.15,-46.92 625.02,-36.1"/>
</g>
<!-- row1&#45;&gt;node1_2 -->
<g id="edge19" class="edge">
<title>row1&#45;&gt;node1_2</title>
<path fill="none" stroke="black" d="M556.21,-36.22C563.97,-43.2 573.74,-50.36 584.12,-54 643.47,-74.82 1090.01,-72.48 1150.12,-54 1161.71,-50.44 1173.04,-43.38 1182.23,-36.45"/>
</g>
<!-- row2&#45;&gt;node2_1 -->
<g id="edge23" class="edge">
<title>row2&#45;&gt;node2_1</title>
<path fill="none" stroke="black" d="M260.21,-36.22C267.97,-43.2 277.74,-50.36 288.12,-54 337.93,-71.47 1187.68,-69.51 1238.12,-54 1249.71,-50.44 1261.04,-43.38 1270.23,-36.45"/>
</g>
<!-- row3&#45;&gt;node3_4 -->
<g id="edge27" class="edge">
<title>row3&#45;&gt;node3_4</title>
<path fill="none" stroke="black" d="M116.21,-36.22C123.97,-43.2 133.74,-50.36 144.12,-54 225.28,-82.47 833.22,-67.66 918.12,-54 943.51,-49.92 970.99,-40.81 992,-32.77"/>
</g>
<!-- row4&#45;&gt;node4_3 -->
<g id="edge31" class="edge">
<title>row4&#45;&gt;node4_3</title>
<path fill="none" stroke="black" d="M404.21,-36.22C411.97,-43.2 421.74,-50.36 432.12,-54 498.18,-77.17 995.22,-74.57 1062.12,-54 1073.71,-50.44 1085.04,-43.38 1094.23,-36.45"/>
</g>
<!-- row5&#45;&gt;node5_6 -->
<g id="edge35" class="edge">
<title>row5&#45;&gt;node5_6</title>
<path fill="none" stroke="black" d="M44.21,-36.22C51.97,-43.2 61.74,-50.36 72.12,-54 142.37,-78.64 670.97,-75.88 742.12,-54 753.71,-50.44 765.04,-43.38 774.23,-36.45"/>
</g>
<!-- row6&#45;&gt;node6_5 -->
<g id="edge39" class="edge">
<title>row6&#45;&gt;node6_5</title>
<path fill="none" stroke="black" d="M188.21,-36.22C195.97,-43.2 205.74,-50.36 216.12,-54 280.5,-76.58 764.92,-74.05 830.12,-54 841.71,-50.44 853.04,-43.38 862.23,-36.45"/>
</g>
<!-- row9&#45;&gt;node9_10 -->
<g id="edge43" class="edge">
<title>row9&#45;&gt;node9_10</title>
<path fill="none" stroke="black" d="M332.21,-36.22C339.97,-43.2 349.74,-50.36 360.12,-54 403.32,-69.15 522.37,-67.46 566.12,-54 577.71,-50.44 589.04,-43.38 598.23,-36.45"/>
</g>
<!-- row10&#45;&gt;node10_9 -->
<g id="edge47" class="edge">
<title>row10&#45;&gt;node10_9</title>
<path fill="none" stroke="black" d="M481.99,-36.24C490.49,-43.23 501.09,-50.38 512.12,-54 572.1,-73.66 593.8,-72.55 654.12,-54 665.71,-50.44 677.04,-43.38 686.23,-36.45"/>
</g>
<!-- node1_ -->
<g id="node19" class="node">
<title>node1_</title>
<polygon fill="none" stroke="black" points="1401.5,-108 1336.75,-108 1336.75,-72 1401.5,-72 1401.5,-108"/>
<text text-anchor="middle" x="1369.12" y="-84.95" font-family="Arial" font-size="14.00">node1_</text>
</g>
<!-- &#45;1 -->
<g id="node20" class="node">
<title>&#45;1</title>
<polygon fill="none" stroke="black" points="982.12,-108 928.12,-108 928.12,-72 982.12,-72 982.12,-108"/>
<text text-anchor="middle" x="955.12" y="-84.95" font-family="Arial" font-size="14.00">&#45;1</text>
</g>
<!-- &#45;1&#45;&gt;node1_2 -->
<g id="edge18" class="edge">
<title>&#45;1&#45;&gt;node1_2</title>
<path fill="none" stroke="black" d="M982.37,-75.34C985.29,-74.12 988.24,-72.97 991.12,-72 1063.46,-47.53 1085.95,-57.83 1159.12,-36 1161.95,-35.16 1164.85,-34.22 1167.75,-33.22"/>
</g>
<!-- &#45;1&#45;&gt;node2_1 -->
<g id="edge22" class="edge">
<title>&#45;1&#45;&gt;node2_1</title>
<path fill="none" stroke="black" d="M982.31,-75.13C985.24,-73.94 988.21,-72.87 991.12,-72 1101.21,-39.1 1135.92,-64.89 1247.12,-36 1249.98,-35.26 1252.9,-34.39 1255.81,-33.44"/>
</g>
<!-- &#45;1&#45;&gt;node3_4 -->
<g id="edge26" class="edge">
<title>&#45;1&#45;&gt;node3_4</title>
<path fill="none" stroke="black" d="M972.92,-71.7C984,-60.93 998.2,-47.12 1009.28,-36.35"/>
</g>
<!-- &#45;1&#45;&gt;node4_3 -->
<g id="edge30" class="edge">
<title>&#45;1&#45;&gt;node4_3</title>
<path fill="none" stroke="black" d="M982.59,-75.9C985.47,-74.57 988.35,-73.25 991.12,-72 1020.81,-58.65 1054.81,-44.18 1079.7,-33.73"/>
</g>
<!-- &#45;1&#45;&gt;node5_6 -->
<g id="edge34" class="edge">
<title>&#45;1&#45;&gt;node5_6</title>
<path fill="none" stroke="black" d="M927.66,-75.9C924.78,-74.57 921.9,-73.25 919.12,-72 889.44,-58.65 855.44,-44.18 830.55,-33.73"/>
</g>
<!-- &#45;1&#45;&gt;node6_5 -->
<g id="edge38" class="edge">
<title>&#45;1&#45;&gt;node6_5</title>
<path fill="none" stroke="black" d="M937.33,-71.7C926.25,-60.93 912.05,-47.12 900.97,-36.35"/>
</g>
<!-- &#45;1&#45;&gt;node9_10 -->
<g id="edge42" class="edge">
<title>&#45;1&#45;&gt;node9_10</title>
<path fill="none" stroke="black" d="M927.94,-75.13C925.01,-73.94 922.04,-72.87 919.12,-72 809.04,-39.1 774.33,-64.89 663.12,-36 660.27,-35.26 657.35,-34.39 654.44,-33.44"/>
</g>
<!-- &#45;1&#45;&gt;node10_9 -->
<g id="edge46" class="edge">
<title>&#45;1&#45;&gt;node10_9</title>
<path fill="none" stroke="black" d="M927.88,-75.34C924.96,-74.12 922.01,-72.97 919.12,-72 846.79,-47.53 824.3,-57.83 751.12,-36 748.3,-35.16 745.4,-34.22 742.5,-33.22"/>
</g>
<!-- node2_ -->
<g id="node22" class="node">
<title>node2_</title>
<polygon fill="none" stroke="black" points="1484.5,-108 1419.75,-108 1419.75,-72 1484.5,-72 1484.5,-108"/>
<text text-anchor="middle" x="1452.12" y="-84.95" font-family="Arial" font-size="14.00">node2_</text>
</g>
<!-- node3_ -->
<g id="node24" class="node">
<title>node3_</title>
<polygon fill="none" stroke="black" points="1567.5,-108 1502.75,-108 1502.75,-72 1567.5,-72 1567.5,-108"/>
<text text-anchor="middle" x="1535.12" y="-84.95" font-family="Arial" font-size="14.00">node3_</text>
</g>
<!-- node4_ -->
<g id="node26" class="node">
<title>node4_</title>
<polygon fill="none" stroke="black" points="1650.5,-108 1585.75,-108 1585.75,-72 1650.5,-72 1650.5,-108"/>
<text text-anchor="middle" x="1618.12" y="-84.95" font-family="Arial" font-size="14.00">node4_</text>
</g>
<!-- node5_ -->
<g id="node28" class="node">
<title>node5_</title>
<polygon fill="none" stroke="black" points="1733.5,-108 1668.75,-108 1668.75,-72 1733.5,-72 1733.5,-108"/>
<text text-anchor="middle" x="1701.12" y="-84.95" font-family="Arial" font-size="14.00">node5_</text>
</g>
<!-- node6_ -->
<g id="node30" class="node">
<title>node6_</title>
<polygon fill="none" stroke="black" points="1816.5,-108 1751.75,-108 1751.75,-72 1816.5,-72 1816.5,-108"/>
<text text-anchor="middle" x="1784.12" y="-84.95" font-family="Arial" font-size="14.00">node6_</text>
</g>
<!-- node9_ -->
<g id="node32" class="node">
<title>node9_</title>
<polygon fill="none" stroke="black" points="1899.5,-108 1834.75,-108 1834.75,-72 1899.5,-72 1899.5,-108"/>
<text text-anchor="middle" x="1867.12" y="-84.95" font-family="Arial" font-size="14.00">node9_</text>
</g>
<!-- node10_ -->
<g id="node34" class="node">
<title>node10_</title>
<polygon fill="none" stroke="black" points="1990.62,-108 1917.62,-108 1917.62,-72 1990.62,-72 1990.62,-108"/>
<text text-anchor="middle" x="1954.12" y="-84.95" font-family="Arial" font-size="14.00">node10_</text>
</g>
</g>
</svg>
