<?xml version="1.0" encoding="UTF-8" standalone="no"?>
<!DOCTYPE svg PUBLIC "-//W3C//DTD SVG 1.1//EN"
 "http://www.w3.org/Graphics/SVG/1.1/DTD/svg11.dtd">
<!-- Generated by graphviz version 8.1.0 (20230707.0739)
 -->
<!-- Title: G Pages: 1 -->
<svg width="1362pt" height="643pt"
 viewBox="0.00 0.00 1361.96 642.75" xmlns="http://www.w3.org/2000/svg" xmlns:xlink="http://www.w3.org/1999/xlink">
<g id="graph0" class="graph" transform="scale(1 1) rotate(0) translate(4 638.75)">
<title>G</title>
<polygon fill="white" stroke="none" points="-4,4 -4,-638.75 1357.96,-638.75 1357.96,4 -4,4"/>
<!-- root -->
<g id="node1" class="node">
<title>root</title>
<ellipse fill="none" stroke="black" cx="29.61" cy="-183" rx="29.61" ry="18"/>
<text text-anchor="middle" x="29.61" y="-177.57" font-family="Times New Roman,serif" font-size="14.00">Root</text>
</g>
<!-- col1 -->
<g id="node2" class="node">
<title>col1</title>
<polygon fill="none" stroke="black" points="150.21,-358 96.21,-358 96.21,-322 150.21,-322 150.21,-358"/>
<text text-anchor="middle" x="123.21" y="-334.57" font-family="Times New Roman,serif" font-size="14.00">User1</text>
</g>
<!-- root&#45;&gt;col1 -->
<g id="edge1" class="edge">
<title>root&#45;&gt;col1</title>
<path fill="none" stroke="black" d="M48.5,-197.15C52.46,-200.98 56.33,-205.36 59.21,-210 73.67,-233.3 67.77,-243.26 77.21,-269 83.64,-286.5 84.33,-293.48 96.75,-312.57"/>
<polygon fill="black" stroke="black" points="94.33,-314.24 102.83,-320.56 100.12,-310.32 94.33,-314.24"/>
</g>
<!-- col3 -->
<g id="node3" class="node">
<title>col3</title>
<polygon fill="none" stroke="black" points="377.71,-36 323.71,-36 323.71,0 377.71,0 377.71,-36"/>
<text text-anchor="middle" x="350.71" y="-12.57" font-family="Times New Roman,serif" font-size="14.00">User3</text>
</g>
<!-- root&#45;&gt;col3 -->
<g id="edge2" class="edge">
<title>root&#45;&gt;col3</title>
<path fill="none" stroke="black" d="M31.28,-164.66C33.42,-135.54 42.14,-79.13 77.21,-51 145.35,3.64 255.6,-3.04 312.74,-11.25"/>
<polygon fill="black" stroke="black" points="312.01,-14.83 322.43,-12.89 313.08,-7.91 312.01,-14.83"/>
</g>
<!-- col6 -->
<g id="node4" class="node">
<title>col6</title>
<polygon fill="none" stroke="black" points="455.46,-215 401.46,-215 401.46,-179 455.46,-179 455.46,-215"/>
<text text-anchor="middle" x="428.46" y="-191.57" font-family="Times New Roman,serif" font-size="14.00">User6</text>
</g>
<!-- root&#45;&gt;col6 -->
<g id="edge3" class="edge">
<title>root&#45;&gt;col6</title>
<path fill="none" stroke="black" d="M59.59,-181.64C87.43,-180.41 130.69,-178.68 168.21,-178 192.21,-177.56 198.24,-176.89 222.21,-178 281.19,-180.72 349.4,-187.83 390.45,-192.54"/>
<polygon fill="black" stroke="black" points="389.94,-196.12 400.27,-193.79 390.75,-189.16 389.94,-196.12"/>
</g>
<!-- col7 -->
<g id="node5" class="node">
<title>col7</title>
<polygon fill="none" stroke="black" points="847.71,-80 793.71,-80 793.71,-44 847.71,-44 847.71,-80"/>
<text text-anchor="middle" x="820.71" y="-56.58" font-family="Times New Roman,serif" font-size="14.00">User7</text>
</g>
<!-- root&#45;&gt;col7 -->
<g id="edge4" class="edge">
<title>root&#45;&gt;col7</title>
<path fill="none" stroke="black" d="M35.43,-165.08C45.51,-132.07 72.16,-65 122.21,-65 122.21,-65 122.21,-65 688.71,-65 720.32,-65 756.21,-64.12 782.42,-63.31"/>
<polygon fill="black" stroke="black" points="782.49,-66.78 792.37,-62.96 782.27,-59.78 782.49,-66.78"/>
</g>
<!-- row1 -->
<g id="node6" class="node">
<title>row1</title>
<polygon fill="none" stroke="black" points="714.71,-168 660.71,-168 660.71,-132 714.71,-132 714.71,-168"/>
<text text-anchor="middle" x="687.71" y="-144.57" font-family="Times New Roman,serif" font-size="14.00">User1</text>
</g>
<!-- root&#45;&gt;row1 -->
<g id="edge5" class="edge">
<title>root&#45;&gt;row1</title>
<path fill="none" stroke="black" d="M41.8,-166.41C57.24,-145.71 87.19,-113 122.21,-113 122.21,-113 122.21,-113 351.71,-113 460.51,-113 587.98,-132.52 649.61,-143.2"/>
<polygon fill="black" stroke="black" points="648.88,-146.8 659.33,-145.09 650.09,-139.91 648.88,-146.8"/>
</g>
<!-- row3 -->
<g id="node7" class="node">
<title>row3</title>
<polygon fill="none" stroke="black" points="222.21,-223 168.21,-223 168.21,-187 222.21,-187 222.21,-223"/>
<text text-anchor="middle" x="195.21" y="-199.57" font-family="Times New Roman,serif" font-size="14.00">User3</text>
</g>
<!-- root&#45;&gt;row3 -->
<g id="edge6" class="edge">
<title>root&#45;&gt;row3</title>
<path fill="none" stroke="black" d="M58.73,-186.78C85.87,-190.43 127.12,-195.98 156.98,-199.99"/>
<polygon fill="black" stroke="black" points="156.43,-203.59 166.81,-201.45 157.36,-196.65 156.43,-203.59"/>
</g>
<!-- row6 -->
<g id="node8" class="node">
<title>row6</title>
<polygon fill="none" stroke="black" points="150.21,-304 96.21,-304 96.21,-268 150.21,-268 150.21,-304"/>
<text text-anchor="middle" x="123.21" y="-280.57" font-family="Times New Roman,serif" font-size="14.00">User6</text>
</g>
<!-- root&#45;&gt;row6 -->
<g id="edge7" class="edge">
<title>root&#45;&gt;row6</title>
<path fill="none" stroke="black" d="M48.2,-197.35C52.17,-201.17 56.12,-205.49 59.21,-210 71.17,-227.42 64.09,-237.45 77.21,-254 80.18,-257.73 83.68,-261.23 87.42,-264.43"/>
<polygon fill="black" stroke="black" points="84.77,-267.58 94.81,-270.95 89.07,-262.05 84.77,-267.58"/>
</g>
<!-- row7 -->
<g id="node9" class="node">
<title>row7</title>
<polygon fill="none" stroke="black" points="299.96,-304 245.96,-304 245.96,-268 299.96,-268 299.96,-304"/>
<text text-anchor="middle" x="272.96" y="-280.57" font-family="Times New Roman,serif" font-size="14.00">User7</text>
</g>
<!-- root&#45;&gt;row7 -->
<g id="edge8" class="edge">
<title>root&#45;&gt;row7</title>
<path fill="none" stroke="black" d="M53.79,-193.58C61.25,-196.95 69.57,-200.67 77.21,-204 132.2,-227.96 196.4,-254.77 235.6,-271.01"/>
<polygon fill="black" stroke="black" points="234.15,-274.61 244.73,-275.2 236.83,-268.14 234.15,-274.61"/>
</g>
<!-- node6_1 -->
<g id="node20" class="node">
<title>node6_1</title>
<polygon fill="none" stroke="black" points="240.21,-464 240.21,-500 305.71,-500 305.71,-464 240.21,-464"/>
<text text-anchor="middle" x="272.96" y="-476.7" font-family="Times New Roman,serif" font-size="14.00">Solicitud</text>
</g>
<!-- col1&#45;&gt;node6_1 -->
<g id="edge30" class="edge">
<title>col1&#45;&gt;node6_1</title>
<path fill="none" stroke="black" d="M124.58,-358.06C126.22,-386.74 133.93,-442.29 168.21,-470 185.19,-483.72 209.14,-487.19 229.75,-487.02"/>
<polygon fill="black" stroke="black" points="229.62,-490.49 239.48,-486.61 229.35,-483.49 229.62,-490.49"/>
</g>
<!-- node7_1 -->
<g id="node22" class="node">
<title>node7_1</title>
<polygon fill="none" stroke="black" points="395.71,-335 395.71,-371 461.21,-371 461.21,-335 395.71,-335"/>
<text text-anchor="middle" x="428.46" y="-347.7" font-family="Times New Roman,serif" font-size="14.00">Solicitud</text>
</g>
<!-- col1&#45;&gt;node7_1 -->
<g id="edge44" class="edge">
<title>col1&#45;&gt;node7_1</title>
<path fill="none" stroke="black" d="M150.6,-341.13C203.2,-343.39 321.56,-348.46 385.15,-351.19"/>
<polygon fill="black" stroke="black" points="384.85,-354.72 394.99,-351.65 385.14,-347.73 384.85,-354.72"/>
</g>
<!-- node6_3 -->
<g id="node24" class="node">
<title>node6_3</title>
<polygon fill="none" stroke="black" points="1173.46,-392 1173.46,-428 1238.96,-428 1238.96,-392 1173.46,-392"/>
<text text-anchor="middle" x="1206.21" y="-404.7" font-family="Times New Roman,serif" font-size="14.00">Solicitud</text>
</g>
<!-- col3&#45;&gt;node6_3 -->
<g id="edge35" class="edge">
<title>col3&#45;&gt;node6_3</title>
<path fill="none" stroke="black" d="M378.08,-17.39C406.01,-16.81 451.41,-16 490.59,-16 490.59,-16 490.59,-16 1080.96,-16 1157.58,-16 1192.85,-290.39 1202.43,-381.2"/>
<polygon fill="black" stroke="black" points="1199.04,-381.46 1203.54,-391.05 1206,-380.74 1199.04,-381.46"/>
</g>
<!-- node1_6 -->
<g id="node10" class="node">
<title>node1_6</title>
<polygon fill="none" stroke="black" points="787.96,-206 787.96,-242 853.46,-242 853.46,-206 787.96,-206"/>
<text text-anchor="middle" x="820.71" y="-218.7" font-family="Times New Roman,serif" font-size="14.00">Solicitud</text>
</g>
<!-- col6&#45;&gt;node1_6 -->
<g id="edge14" class="edge">
<title>col6&#45;&gt;node1_6</title>
<path fill="none" stroke="black" d="M455.68,-197.83C469.96,-198.34 487.94,-199.08 503.96,-200 602.13,-205.67 717.26,-215.13 777.73,-220.32"/>
<polygon fill="black" stroke="black" points="777.1,-223.86 787.37,-221.24 777.71,-216.89 777.1,-223.86"/>
</g>
<!-- node3_6 -->
<g id="node12" class="node">
<title>node3_6</title>
<polygon fill="none" stroke="black" points="654.96,-250 654.96,-286 720.46,-286 720.46,-250 654.96,-250"/>
<text text-anchor="middle" x="687.71" y="-262.7" font-family="Times New Roman,serif" font-size="14.00">Solicitud</text>
</g>
<!-- col6&#45;&gt;node3_6 -->
<g id="edge24" class="edge">
<title>col6&#45;&gt;node3_6</title>
<path fill="none" stroke="black" d="M455.64,-200.38C495.62,-206.04 573.89,-219.15 636.96,-242 639.84,-243.04 642.76,-244.22 645.67,-245.49"/>
<polygon fill="black" stroke="black" points="643.9,-248.99 654.44,-250.05 646.86,-242.65 643.9,-248.99"/>
</g>
<!-- node7_6 -->
<g id="node18" class="node">
<title>node7_6</title>
<polygon fill="none" stroke="black" points="521.96,-291 521.96,-327 587.46,-327 587.46,-291 521.96,-291"/>
<text text-anchor="middle" x="554.71" y="-303.7" font-family="Times New Roman,serif" font-size="14.00">Solicitud</text>
</g>
<!-- col6&#45;&gt;node7_6 -->
<g id="edge48" class="edge">
<title>col6&#45;&gt;node7_6</title>
<path fill="none" stroke="black" d="M449.98,-215.49C470.73,-234.2 502.94,-263.23 525.96,-283.98"/>
<polygon fill="black" stroke="black" points="523.22,-286.12 532.99,-290.22 527.9,-280.92 523.22,-286.12"/>
</g>
<!-- node1_7 -->
<g id="node15" class="node">
<title>node1_7</title>
<polygon fill="none" stroke="black" points="914.21,-161 914.21,-197 979.71,-197 979.71,-161 914.21,-161"/>
<text text-anchor="middle" x="946.96" y="-173.7" font-family="Times New Roman,serif" font-size="14.00">Solicitud</text>
</g>
<!-- col7&#45;&gt;node1_7 -->
<g id="edge19" class="edge">
<title>col7&#45;&gt;node1_7</title>
<path fill="none" stroke="black" d="M841.33,-80.41C856.37,-94.52 877.61,-114.47 896.21,-132 903.71,-139.06 911.83,-146.73 919.29,-153.78"/>
<polygon fill="black" stroke="black" points="916.4,-155.81 926.08,-160.13 921.21,-150.72 916.4,-155.81"/>
</g>
<!-- node6_7 -->
<g id="node17" class="node">
<title>node6_7</title>
<polygon fill="none" stroke="black" points="1047.21,-134 1047.21,-170 1112.71,-170 1112.71,-134 1047.21,-134"/>
<text text-anchor="middle" x="1079.96" y="-146.7" font-family="Times New Roman,serif" font-size="14.00">Solicitud</text>
</g>
<!-- col7&#45;&gt;node6_7 -->
<g id="edge39" class="edge">
<title>col7&#45;&gt;node6_7</title>
<path fill="none" stroke="black" d="M848.15,-60.43C889.49,-59.15 970.76,-61.5 1029.21,-94 1042.48,-101.38 1053.83,-113.74 1062.32,-125.17"/>
<polygon fill="black" stroke="black" points="1059.9,-126.82 1068.5,-133.02 1065.64,-122.81 1059.9,-126.82"/>
</g>
<!-- row1&#45;&gt;node1_6 -->
<g id="edge13" class="edge">
<title>row1&#45;&gt;node1_6</title>
<path fill="none" stroke="black" d="M715.17,-159.39C731.47,-165.67 752.53,-174.65 769.96,-185 776.97,-189.16 784.1,-194.19 790.69,-199.23"/>
<polygon fill="black" stroke="black" points="788.26,-202.57 798.28,-206.03 792.61,-197.08 788.26,-202.57"/>
</g>
<!-- row1&#45;&gt;node1_7 -->
<g id="edge18" class="edge">
<title>row1&#45;&gt;node1_7</title>
<path fill="none" stroke="black" d="M714.95,-152.49C754.36,-156.3 831.14,-163.97 896.21,-172 898.61,-172.29 901.06,-172.61 903.54,-172.93"/>
<polygon fill="black" stroke="black" points="903.03,-176.53 913.4,-174.39 903.96,-169.59 903.03,-176.53"/>
</g>
<!-- row3&#45;&gt;node3_6 -->
<g id="edge23" class="edge">
<title>row3&#45;&gt;node3_6</title>
<path fill="none" stroke="black" d="M222.59,-208.39C303.06,-218.72 545.97,-249.92 644.51,-262.58"/>
<polygon fill="black" stroke="black" points="643.87,-266.15 654.24,-263.96 644.77,-259.21 643.87,-266.15"/>
</g>
<!-- row6&#45;&gt;node6_7 -->
<g id="edge38" class="edge">
<title>row6&#45;&gt;node6_7</title>
<path fill="none" stroke="black" d="M150.45,-272.43C198.06,-248.33 302.44,-197.99 395.71,-170 665.78,-88.95 751.64,-86.46 1029.21,-136 1031.74,-136.45 1034.31,-137 1036.89,-137.61"/>
<polygon fill="black" stroke="black" points="1035.87,-141.23 1046.44,-140.46 1037.7,-134.47 1035.87,-141.23"/>
</g>
<!-- row6&#45;&gt;node6_1 -->
<g id="edge29" class="edge">
<title>row6&#45;&gt;node6_1</title>
<path fill="none" stroke="black" d="M144.62,-304.31C146.79,-307.03 148.74,-309.95 150.21,-313 176.02,-366.29 130.9,-399.03 168.21,-445 176.36,-455.04 204.84,-464.79 229.9,-471.76"/>
<polygon fill="black" stroke="black" points="228.79,-475.36 239.36,-474.57 230.61,-468.6 228.79,-475.36"/>
</g>
<!-- row6&#45;&gt;node6_3 -->
<g id="edge34" class="edge">
<title>row6&#45;&gt;node6_3</title>
<path fill="none" stroke="black" d="M143.79,-304.47C177.46,-334.92 249.87,-394.82 323.71,-420 394.06,-443.99 416.26,-431 490.59,-431 490.59,-431 490.59,-431 1080.96,-431 1108.57,-431 1139.14,-425.9 1163.06,-420.72"/>
<polygon fill="black" stroke="black" points="1163.56,-423.97 1172.54,-418.36 1162.02,-417.15 1163.56,-423.97"/>
</g>
<!-- row7&#45;&gt;node7_6 -->
<g id="edge47" class="edge">
<title>row7&#45;&gt;node7_6</title>
<path fill="none" stroke="black" d="M300.21,-287.54C342.96,-290.15 430.24,-295.83 503.96,-303 506.36,-303.23 508.81,-303.48 511.29,-303.75"/>
<polygon fill="black" stroke="black" points="510.83,-307.33 521.16,-304.97 511.61,-300.38 510.83,-307.33"/>
</g>
<!-- row7&#45;&gt;node7_1 -->
<g id="edge43" class="edge">
<title>row7&#45;&gt;node7_1</title>
<path fill="none" stroke="black" d="M300.3,-292.52C321.74,-298.32 352.47,-307.77 377.71,-320 383.14,-322.63 388.66,-325.76 393.96,-329.04"/>
<polygon fill="black" stroke="black" points="391.89,-332.52 402.19,-335.01 395.7,-326.64 391.89,-332.52"/>
</g>
<!-- nodex_6 -->
<g id="node11" class="node">
<title>nodex_6</title>
<polygon fill="none" stroke="black" points="914.59,-286 914.59,-322 979.34,-322 979.34,-286 914.59,-286"/>
<text text-anchor="middle" x="946.96" y="-298.7" font-family="Times New Roman,serif" font-size="14.00">nodex_6</text>
</g>
<!-- node1_6&#45;&gt;nodex_6 -->
<g id="edge9" class="edge">
<title>node1_6&#45;&gt;nodex_6</title>
<path fill="none" stroke="black" d="M849.6,-241.95C867.18,-253.28 890.09,-268.03 909.16,-280.3"/>
<polygon fill="black" stroke="black" points="906.87,-283.64 917.17,-286.11 910.66,-277.75 906.87,-283.64"/>
<text text-anchor="middle" x="883.84" y="-274.45" font-family="Times New Roman,serif" font-size="14.00">up</text>
</g>
<!-- node1_6&#45;&gt;node3_6 -->
<g id="edge10" class="edge">
<title>node1_6&#45;&gt;node3_6</title>
<path fill="none" stroke="black" d="M788.33,-222.32C772.87,-222.5 754.2,-224.27 738.46,-230.25 730.34,-233.34 722.43,-238.19 715.39,-243.4"/>
<polygon fill="black" stroke="black" points="713.63,-241.12 707.99,-250.09 717.99,-246.6 713.63,-241.12"/>
<text text-anchor="middle" x="754.21" y="-233.45" font-family="Times New Roman,serif" font-size="14.00">down</text>
</g>
<!-- node1_ -->
<g id="node13" class="node">
<title>node1_</title>
<polygon fill="none" stroke="black" points="917.96,-231 917.96,-267 975.96,-267 975.96,-231 917.96,-231"/>
<text text-anchor="middle" x="946.96" y="-243.7" font-family="Times New Roman,serif" font-size="14.00">node1_</text>
</g>
<!-- node1_6&#45;&gt;node1_ -->
<g id="edge11" class="edge">
<title>node1_6&#45;&gt;node1_</title>
<path fill="none" stroke="black" d="M853.26,-231.13C859.3,-232.45 865.57,-233.8 871.46,-235 883.09,-237.38 895.77,-239.82 907.32,-241.98"/>
<polygon fill="black" stroke="black" points="906.5,-245.57 916.97,-243.96 907.78,-238.69 906.5,-245.57"/>
</g>
<!-- node1_6&#45;&gt;node1_7 -->
<g id="edge12" class="edge">
<title>node1_6&#45;&gt;node1_7</title>
<path fill="none" stroke="black" d="M836.29,-206.11C845.3,-196.5 857.73,-185.56 871.46,-180.25 881.4,-176.41 892.66,-174.91 903.36,-174.64"/>
<polygon fill="black" stroke="black" points="903.19,-178.15 913.23,-174.76 903.27,-171.15 903.19,-178.15"/>
<text text-anchor="middle" x="883.84" y="-183.45" font-family="Times New Roman,serif" font-size="14.00">right</text>
</g>
<!-- node3_6&#45;&gt;node1_6 -->
<g id="edge20" class="edge">
<title>node3_6&#45;&gt;node1_6</title>
<path fill="none" stroke="black" d="M720.31,-260.63C735.49,-256.79 753.85,-251.71 769.96,-246 772.67,-245.04 775.43,-244 778.2,-242.91"/>
<polygon fill="black" stroke="black" points="779.24,-245.86 787.16,-238.81 776.58,-239.38 779.24,-245.86"/>
<text text-anchor="middle" x="754.21" y="-258.45" font-family="Times New Roman,serif" font-size="14.00">up</text>
</g>
<!-- node3_6&#45;&gt;node7_6 -->
<g id="edge21" class="edge">
<title>node3_6&#45;&gt;node7_6</title>
<path fill="none" stroke="black" d="M669,-285.84C660.16,-293.54 648.83,-301.74 636.96,-306 624.84,-310.35 611.03,-311.98 598.28,-312.28"/>
<polygon fill="black" stroke="black" points="598.44,-308.77 588.42,-312.23 598.41,-315.77 598.44,-308.77"/>
<text text-anchor="middle" x="621.21" y="-314.45" font-family="Times New Roman,serif" font-size="14.00">down</text>
</g>
<!-- node3_ -->
<g id="node19" class="node">
<title>node3_</title>
<polygon fill="none" stroke="black" points="791.71,-281 791.71,-317 849.71,-317 849.71,-281 791.71,-281"/>
<text text-anchor="middle" x="820.71" y="-293.7" font-family="Times New Roman,serif" font-size="14.00">node3_</text>
</g>
<!-- node3_6&#45;&gt;node3_ -->
<g id="edge22" class="edge">
<title>node3_6&#45;&gt;node3_</title>
<path fill="none" stroke="black" d="M720.34,-279.64C726.31,-281.6 732.54,-283.49 738.46,-285 752.36,-288.55 767.83,-291.46 781.51,-293.7"/>
<polygon fill="black" stroke="black" points="780.61,-297.26 791.03,-295.34 781.69,-290.34 780.61,-297.26"/>
</g>
<!-- &#45;1 -->
<g id="node14" class="node">
<title>&#45;1</title>
<polygon fill="none" stroke="black" points="2.61,-220 2.61,-256 56.61,-256 56.61,-220 2.61,-220"/>
<text text-anchor="middle" x="29.61" y="-232.7" font-family="Times New Roman,serif" font-size="14.00">left</text>
</g>
<!-- node1_7&#45;&gt;node1_6 -->
<g id="edge17" class="edge">
<title>node1_7&#45;&gt;node1_6</title>
<path fill="none" stroke="black" d="M914.35,-190.45C898.87,-196.05 880.04,-202.87 863.41,-208.9"/>
<polygon fill="black" stroke="black" points="862.6,-205.83 854.39,-212.53 864.98,-212.41 862.6,-205.83"/>
<text text-anchor="middle" x="883.84" y="-208.45" font-family="Times New Roman,serif" font-size="14.00">left</text>
</g>
<!-- nodex_7 -->
<g id="node16" class="node">
<title>nodex_7</title>
<polygon fill="none" stroke="black" points="1047.59,-201 1047.59,-237 1112.34,-237 1112.34,-201 1047.59,-201"/>
<text text-anchor="middle" x="1079.96" y="-213.7" font-family="Times New Roman,serif" font-size="14.00">nodex_7</text>
</g>
<!-- node1_7&#45;&gt;nodex_7 -->
<g id="edge15" class="edge">
<title>node1_7&#45;&gt;nodex_7</title>
<path fill="none" stroke="black" d="M979.68,-188.68C997.1,-194 1018.92,-200.67 1037.66,-206.39"/>
<polygon fill="black" stroke="black" points="1036.41,-209.97 1047,-209.54 1038.45,-203.28 1036.41,-209.97"/>
<text text-anchor="middle" x="1013.46" y="-206.45" font-family="Times New Roman,serif" font-size="14.00">up</text>
</g>
<!-- node1_7&#45;&gt;node6_7 -->
<g id="edge16" class="edge">
<title>node1_7&#45;&gt;node6_7</title>
<path fill="none" stroke="black" d="M979.68,-172.46C996.89,-168.92 1018.4,-164.48 1036.99,-160.65"/>
<polygon fill="black" stroke="black" points="1037.46,-163.92 1046.54,-158.48 1036.04,-157.07 1037.46,-163.92"/>
<text text-anchor="middle" x="1013.46" y="-171.45" font-family="Times New Roman,serif" font-size="14.00">down</text>
</g>
<!-- node6_7&#45;&gt;node1_7 -->
<g id="edge36" class="edge">
<title>node6_7&#45;&gt;node1_7</title>
<path fill="none" stroke="black" d="M1047.48,-142.64C1032.16,-139.58 1013.65,-138.12 997.71,-143.25 989.92,-145.76 982.31,-149.99 975.49,-154.69"/>
<polygon fill="black" stroke="black" points="973.62,-152.46 967.72,-161.26 977.82,-158.06 973.62,-152.46"/>
<text text-anchor="middle" x="1013.46" y="-146.45" font-family="Times New Roman,serif" font-size="14.00">up</text>
</g>
<!-- node6_7&#45;&gt;node6_3 -->
<g id="edge37" class="edge">
<title>node6_7&#45;&gt;node6_3</title>
<path fill="none" stroke="black" d="M1098.27,-169.88C1103.56,-176.15 1108.96,-183.51 1112.71,-191 1127.48,-220.5 1119.19,-232.1 1130.71,-263 1146.9,-306.4 1172.42,-353.71 1188.98,-382.61"/>
<polygon fill="black" stroke="black" points="1186.4,-384.14 1194.44,-391.04 1192.45,-380.63 1186.4,-384.14"/>
<text text-anchor="middle" x="1143.09" y="-319.45" font-family="Times New Roman,serif" font-size="14.00">left</text>
</g>
<!-- node7_6&#45;&gt;node3_6 -->
<g id="edge45" class="edge">
<title>node7_6&#45;&gt;node3_6</title>
<path fill="none" stroke="black" d="M587.43,-293.31C593.34,-290.73 599.52,-288.25 605.46,-286.25 617.86,-282.07 631.65,-278.57 644.29,-275.78"/>
<polygon fill="black" stroke="black" points="644.98,-279.01 654.04,-273.52 643.54,-272.16 644.98,-279.01"/>
<text text-anchor="middle" x="621.21" y="-289.45" font-family="Times New Roman,serif" font-size="14.00">up</text>
</g>
<!-- node7_6&#45;&gt;node7_1 -->
<g id="edge46" class="edge">
<title>node7_6&#45;&gt;node7_1</title>
<path fill="none" stroke="black" d="M522,-305.42C508.42,-305.03 492.64,-306.13 479.21,-311.25 469.62,-314.91 460.56,-321.25 452.86,-327.89"/>
<polygon fill="black" stroke="black" points="451.03,-324.75 446.08,-334.12 455.79,-329.88 451.03,-324.75"/>
<text text-anchor="middle" x="491.59" y="-314.45" font-family="Times New Roman,serif" font-size="14.00">left</text>
</g>
<!-- nodex_1 -->
<g id="node21" class="node">
<title>nodex_1</title>
<polygon fill="none" stroke="black" points="396.09,-554 396.09,-590 460.84,-590 460.84,-554 396.09,-554"/>
<text text-anchor="middle" x="428.46" y="-566.7" font-family="Times New Roman,serif" font-size="14.00">nodex_1</text>
</g>
<!-- node6_1&#45;&gt;nodex_1 -->
<g id="edge25" class="edge">
<title>node6_1&#45;&gt;nodex_1</title>
<path fill="none" stroke="black" d="M285.5,-499.76C294.52,-512.35 308.12,-528.77 323.71,-539 342.38,-551.25 365.91,-559.22 385.84,-564.25"/>
<polygon fill="black" stroke="black" points="384.96,-567.87 395.49,-566.75 386.56,-561.06 384.96,-567.87"/>
<text text-anchor="middle" x="350.71" y="-564.45" font-family="Times New Roman,serif" font-size="14.00">up</text>
</g>
<!-- node6_1&#45;&gt;node7_1 -->
<g id="edge26" class="edge">
<title>node6_1&#45;&gt;node7_1</title>
<path fill="none" stroke="black" d="M295.31,-464.06C322,-441.63 367.84,-403.11 397.89,-377.85"/>
<polygon fill="black" stroke="black" points="399.9,-379.9 405.3,-370.78 395.39,-374.54 399.9,-379.9"/>
<text text-anchor="middle" x="350.71" y="-438.45" font-family="Times New Roman,serif" font-size="14.00">down</text>
</g>
<!-- node6_ -->
<g id="node23" class="node">
<title>node6_</title>
<polygon fill="none" stroke="black" points="399.46,-460 399.46,-496 457.46,-496 457.46,-460 399.46,-460"/>
<text text-anchor="middle" x="428.46" y="-472.7" font-family="Times New Roman,serif" font-size="14.00">node6_</text>
</g>
<!-- node6_1&#45;&gt;node6_ -->
<g id="edge27" class="edge">
<title>node6_1&#45;&gt;node6_</title>
<path fill="none" stroke="black" d="M305.4,-481.18C329.54,-480.55 363.01,-479.68 388.79,-479.01"/>
<polygon fill="black" stroke="black" points="388.77,-482.48 398.68,-478.72 388.59,-475.49 388.77,-482.48"/>
</g>
<!-- node6_1&#45;&gt;node6_3 -->
<g id="edge28" class="edge">
<title>node6_1&#45;&gt;node6_3</title>
<path fill="none" stroke="black" d="M278.35,-499.7C284.72,-521.89 298.62,-559.73 323.71,-582 360.33,-614.5 378.51,-619 427.46,-619 427.46,-619 427.46,-619 1080.96,-619 1163.9,-619 1192.72,-495.91 1201.64,-438.65"/>
<polygon fill="black" stroke="black" points="1205.24,-439.22 1203.21,-428.82 1198.31,-438.21 1205.24,-439.22"/>
<text text-anchor="middle" x="754.21" y="-621.45" font-family="Times New Roman,serif" font-size="14.00">right</text>
</g>
<!-- node7_1&#45;&gt;node7_6 -->
<g id="edge42" class="edge">
<title>node7_1&#45;&gt;node7_6</title>
<path fill="none" stroke="black" d="M460.93,-344.68C474.32,-340.89 490.04,-336.11 503.96,-331 506.66,-330.01 509.41,-328.95 512.17,-327.84"/>
<polygon fill="black" stroke="black" points="513.23,-330.78 521.12,-323.7 510.54,-324.31 513.23,-330.78"/>
<text text-anchor="middle" x="491.59" y="-342.45" font-family="Times New Roman,serif" font-size="14.00">right</text>
</g>
<!-- node7_1&#45;&gt;node6_1 -->
<g id="edge40" class="edge">
<title>node7_1&#45;&gt;node6_1</title>
<path fill="none" stroke="black" d="M395.76,-353.74C373.43,-355.8 344.02,-361.79 323.71,-378.25 300.27,-397.25 287.17,-429.96 280.37,-453.58"/>
<polygon fill="black" stroke="black" points="276.78,-452.46 277.6,-463.02 283.55,-454.26 276.78,-452.46"/>
<text text-anchor="middle" x="350.71" y="-381.45" font-family="Times New Roman,serif" font-size="14.00">up</text>
</g>
<!-- node7_ -->
<g id="node26" class="node">
<title>node7_</title>
<polygon fill="none" stroke="black" points="525.71,-366 525.71,-402 583.71,-402 583.71,-366 525.71,-366"/>
<text text-anchor="middle" x="554.71" y="-378.7" font-family="Times New Roman,serif" font-size="14.00">node7_</text>
</g>
<!-- node7_1&#45;&gt;node7_ -->
<g id="edge41" class="edge">
<title>node7_1&#45;&gt;node7_</title>
<path fill="none" stroke="black" d="M461.1,-364.57C467.07,-366.54 473.3,-368.44 479.21,-370 490.79,-373.05 503.54,-375.7 515.17,-377.85"/>
<polygon fill="black" stroke="black" points="514.45,-381.45 524.91,-379.75 515.67,-374.56 514.45,-381.45"/>
</g>
<!-- node6_3&#45;&gt;node6_7 -->
<g id="edge33" class="edge">
<title>node6_3&#45;&gt;node6_7</title>
<path fill="none" stroke="black" d="M1201.91,-392.12C1195.74,-361.29 1180.78,-296.69 1155.46,-247.25 1141.15,-219.3 1132.13,-215.68 1112.71,-191 1109.44,-186.84 1105.95,-182.47 1102.51,-178.22"/>
<polygon fill="black" stroke="black" points="1104.66,-176.31 1095.63,-170.76 1099.22,-180.73 1104.66,-176.31"/>
<text text-anchor="middle" x="1143.09" y="-250.45" font-family="Times New Roman,serif" font-size="14.00">right</text>
</g>
<!-- node6_3&#45;&gt;node6_1 -->
<g id="edge32" class="edge">
<title>node6_3&#45;&gt;node6_1</title>
<path fill="none" stroke="black" d="M1196.38,-427.97C1179.07,-460.31 1137.4,-525 1080.96,-525 427.46,-525 427.46,-525 427.46,-525 388.6,-525 346.18,-512.06 315.8,-500.38"/>
<polygon fill="black" stroke="black" points="317.17,-496.76 306.58,-496.32 314.59,-503.26 317.17,-496.76"/>
<text text-anchor="middle" x="754.21" y="-527.45" font-family="Times New Roman,serif" font-size="14.00">left</text>
</g>
<!-- nodex_3 -->
<g id="node25" class="node">
<title>nodex_3</title>
<polygon fill="none" stroke="black" points="1289.21,-392 1289.21,-428 1353.96,-428 1353.96,-392 1289.21,-392"/>
<text text-anchor="middle" x="1321.59" y="-404.7" font-family="Times New Roman,serif" font-size="14.00">nodex_3</text>
</g>
<!-- node6_3&#45;&gt;nodex_3 -->
<g id="edge31" class="edge">
<title>node6_3&#45;&gt;nodex_3</title>
<path fill="none" stroke="black" d="M1238.8,-410C1251.18,-410 1265.57,-410 1278.8,-410"/>
<polygon fill="black" stroke="black" points="1278.57,-413.5 1288.57,-410 1278.57,-406.5 1278.57,-413.5"/>
<text text-anchor="middle" x="1264.09" y="-412.45" font-family="Times New Roman,serif" font-size="14.00">up</text>
</g>
</g>
</svg>
